# xmcd
# 
# Track frame offsets:
#     150
#     10291
#     25607
#     44624
#     56800
#     73509
#     88070
#     100771
#     115042
#     131627
#     150024
#     163208
#     180998
# 
# Disc length: 2679
# 
# Revision: 17
# Processed by: cddbd v1.5.2PL0 Copyright (c) Steve Scherf et al.
# Submitted via: fre:ac v1.0.31
# 
DISCID=9d0a750d
DTITLE=Tom Waits - Bad As Me
DYEAR=2011
DGENRE=Rock/Pop
TTITLE0=Chicago
TTITLE1=Raised Right Men
TTITLE2=Talking At The Same Time
TTITLE3=Get Lost
TTITLE4=Face To The Highway
TTITLE5=Pay Me
TTITLE6=Back In The Crowd
TTITLE7=Bad As Me
TTITLE8=Kiss Me
TTITLE9=Satisfied
TTITLE10=Last Leaf
TTITLE11=Hell Broke Luce
TTITLE12=New Year's Eve
EXTD=YEAR: 2011
EXTT0=
EXTT1=
EXTT2=
EXTT3=
EXTT4=
EXTT5=
EXTT6=
EXTT7=
EXTT8=
EXTT9=
EXTT10=
EXTT11=
EXTT12=
PLAYORDER=
